<svg width="43" height="43" viewBox="0 0 43 43" fill="none" xmlns="http://www.w3.org/2000/svg">
<mask id="mask0_625:788" style="mask-type:alpha" maskUnits="userSpaceOnUse" x="0" y="0" width="43" height="43">
<rect width="43" height="43" fill="#C4C4C4"/>
</mask>
<g mask="url(#mask0_625:788)">
<path d="M42.3593 4.67747L34.0807 7.31363C30.7358 3.91063 26.2072 2 21.4863 2C16.7654 2 12.2368 3.91063 8.8918 7.31363L0.619995 4.67747L5.15658 12.8357C4.01714 15.4515 3.4961 18.3044 3.63555 21.1639C3.775 24.0234 4.57104 26.8093 5.95935 29.2965C7.34765 31.7836 9.28927 33.9023 11.6273 35.4812C13.9654 37.0602 16.6343 38.0551 19.4183 38.3857L21.4557 42L23.4931 38.3857C26.2772 38.0551 28.946 37.0602 31.2841 35.4812C33.6221 33.9023 35.5638 31.7836 36.9521 29.2965C38.3404 26.8093 39.1364 24.0234 39.2759 21.1639C39.4153 18.3044 38.8943 15.4515 37.7548 12.8357L42.3593 4.67747ZM21.4897 4.26123C25.2096 4.26624 28.8064 5.62373 31.6359 8.09061L26.0602 9.85961L21.4829 17.9554L16.9123 9.85961L11.3367 8.09061C14.1695 5.62483 17.7679 4.26762 21.4897 4.26123V4.26123ZM9.94445 31.0877C8.07358 29.0091 6.77408 26.4622 6.17773 23.7051C5.58138 20.948 5.7094 18.0789 6.5488 15.3886L13.0345 26.9739L14.8885 24.2822L6.80008 9.76249L14.9496 12.357L19.9005 21.0564L14.4675 29.6031L17.9921 35.8466C14.9086 35.1265 12.1117 33.467 9.97161 31.0877H9.94445ZM21.4897 36.0478L17.8631 29.6863L21.4353 24.0255L24.96 29.8528L21.4897 36.0478ZM37.1096 20.2586C37.1169 23.8786 35.9189 27.3935 33.7123 30.2262C31.5057 33.0588 28.4217 35.0408 24.9668 35.8466L28.3625 29.7973L23.0992 21.0633L28.0501 12.357L36.1996 9.76249L28.0501 24.3793L29.8226 27.2167L36.4373 15.3817C36.9213 16.9595 37.1596 18.6052 37.1436 20.2586H37.1096Z" fill="#FF002D"/>
</g>
</svg>
